<?xml version="1.0" encoding="utf-8"?>
<!-- Generator: Adobe Illustrator 19.0.0, SVG Export Plug-In . SVG Version: 6.00 Build 0)  -->
<svg version="1.1" id="Layer_1" xmlns="http://www.w3.org/2000/svg" xmlns:xlink="http://www.w3.org/1999/xlink" x="0px" y="0px"
	 viewBox="0 0 270.5 178.3" style="enable-background:new 0 0 270.5 178.3;" xml:space="preserve">
<g>
	<path d="M43.3,109.2c2-3,3.8-6.1,6-8.9c2.1-2.7,5-4.2,8.5-3.5c1.9,0.4,3.8,1.2,5.5,2.1c2.2,1.3,4.3,3,6.4,4.6
		c12.6,9.2,26.7,12.6,42,11c7.7-0.8,15.1-2.6,22.4-4.9c11-3.4,22.1-6.8,33-10.5c10.2-3.5,20.4-7.3,30.5-11.1
		c12.2-4.5,24.7-8.3,37.8-9.2c4.2-0.3,8.5-0.4,12.7-0.3c1.4,0,3.1,0.6,4.1,1.5c1.7,1.6,3.3,3.4,5.7,4.1c-0.3,0.1-0.5,0.1-0.8,0.1
		c-4.8,0.2-9.6,0.3-14.4,0.7c-11.9,1-23.4,3.8-34.5,8.4c-14.5,6-27.4,14.8-39.3,24.9c-8.4,7.1-16.5,14.4-24.8,21.6
		c-11.7,10.2-25.1,16.7-40.7,18.4c-9.1,1-18-0.1-26.6-3.1c-7.4-2.6-14-6.7-20.2-11.4c-5-3.8-9.2-8.3-11.6-14.2
		c-1.2-2.8-2.3-5.6-3.6-8.3c-2.1-4.4-4.6-8.6-8.4-11.7c-2.9-2.3-6.1-4-9.6-5c-2.2-0.7-4.6-1.1-6.9-1.2c-2.3-0.1-3.6,1.4-3.6,3.7
		c0,1.2,0.1,2.4,0.5,3.5c2.2,7.6,6.2,13.9,12.8,18.5c3.4,2.3,6.9,4.4,10.9,5.5c2.5,0.6,3.9-0.4,4.2-2.9c0.1-1.1,0-2.3,0-3.4
		c0-0.5-0.1-1-0.1-1.5c0.1-0.1,0.2-0.1,0.3-0.2c2.5,7.2,6.5,13.3,12.8,17.7c-1.1-0.1-2.1-0.4-3-0.6c-8.6-2.4-17-5.1-24.9-9.3
		c-9.2-4.9-16-12-20.5-21.3c-2.7-5.6-4.2-11.6-5.2-17.7c-0.4-2.4-0.6-4.9-0.7-7.3c-0.1-1.7,1.1-2.5,2.7-2.3C3.8,85.7,4.9,86,6,86.4
		c3.7,1.5,7.4,2.9,11,4.5c4,1.8,8,3.6,11.8,5.7c5.8,3.2,10.5,7.7,13.9,13.7C42.9,109.8,43.1,109.5,43.3,109.2z M246.3,79.9
		c-0.3-0.3-1-0.5-1.6-0.4c-3.8,0.2-7.5,0.4-11.2,0.8c-14,1.6-27.3,6-40.4,11.2c-12.6,5-25.1,10.1-38,14.3
		c-7.8,2.6-15.5,5.7-23.2,8.4c-7.9,2.7-16,4.8-24.4,5.5c-7.2,0.6-14.2-0.1-21.1-2c-7.6-2.1-14.7-5.5-21-10.2c-1.4-1-3-1.9-4.7-2.5
		c-1.5-0.6-2.8,0-3.6,1.4c-1.5,2.4-1.7,5-1.9,7.7c-1,11.8,4.5,20,14.2,25.9c7,4.2,14.4,7.1,22.5,8.1c6.9,0.9,13.6,0.5,20.4-1.2
		c9.3-2.3,17.8-6.4,25.4-12.1c9.5-7.1,18.9-14.3,28.4-21.4c18.5-13.7,38.8-23.5,61.5-27.8c6.5-1.2,13-2,19.6-2.3
		c0.5,0,0.9-0.1,1.4-0.2C247.8,81.9,247.1,80.8,246.3,79.9z M29.4,99.3c-4-2.2-8.2-4.1-12.4-6c-2.6-1.2-5.2-2.4-7.9-3.4
		C8,89.4,6.7,89,5.4,88.8c-1.7-0.4-2.9,0.6-2.7,2.3c0.2,1.9,0.6,3.8,1.1,5.7C4.2,98,5,98.1,5.9,97.1c0.2-0.2,0.5-0.5,0.6-0.8
		c1-1.9,2.8-2.3,4.7-2c8.5,1.4,16.6,4.1,23.5,9.6c0.1,0.1,0.3,0.2,0.4,0.3c0.1-0.1,0.2-0.3,0.3-0.4C33.4,102.3,31.6,100.5,29.4,99.3
		z"/>
	<path d="M258.6,75.3c11.1-7.1,15.4-20,8.8-32.3c-5.1-9.5-13.3-14.6-23.7-16.5c-7-1.2-13.8-0.2-20.5,2.1c-6.7,2.3-13,5.6-19.3,8.8
		c-6.4,3.2-12.8,6.2-19.8,7.7c-6.5,1.4-12.9,1.4-19.2-0.7c-7-2.3-11.9-6.9-13.2-14.4c-1.1-6.3,1.3-11.5,5.9-15.7
		c6.9-6.3,15.2-8.2,24.3-7.5c7.1,0.6,13.8,2.7,20.3,5.3c4.1,1.6,8.2,3.2,12.6,3.7c5.7,0.7,10.4-1.2,14.2-5.5
		c0.1-0.1,0.2-0.3,0.3-0.4c-1.7,0.9-3.4,2-5.2,2.8c-3.9,1.6-8,1.6-11.9,0.2c-5-1.8-9.9-3.9-14.8-6c-5.8-2.5-11.7-4.9-18-6.1
		c-17.2-3.2-30.7,5.9-37.1,18.7c-1.9,3.8-3.2,7.8-3.4,12c-0.3,4.9,0.6,9.5,3.1,13.7c5.7,9.7,14.6,14.3,25.2,16.2
		c9.6,1.7,18.7-0.4,27.5-4.3c6.9-3,13.2-7,19.7-10.7c7.2-4.1,14.5-8.3,22.8-9.9c8.2-1.6,15.9-0.5,22.5,5c6.7,5.5,9.1,14.2,6.3,22.4
		c-1.3,3.9-3.5,7.3-6.2,10.3C259.4,74.5,259,74.9,258.6,75.3z"/>
	<path d="M184.1,91.5c-1.9,0.6-3.8,1.3-5.7,1.9c-11,3.6-21.9,7.3-33,10.7c-11.8,3.7-23.8,7.1-36.2,8.3c-8.2,0.8-16.3,0.1-24.1-2.8
		c-6.1-2.2-11.4-5.7-16.4-9.7c-3-2.4-6.2-4.2-10.1-4.7c-1-0.1-1.9-0.2-2.9-0.4c-0.7-0.1-0.9-0.5-0.5-1.1c1.2-1.8,3.7-2.9,5.8-2.4
		C72,93.6,83,95,94.2,95.1c8.9,0.1,17.7-0.4,26.4-2.5c2-0.5,3.6-0.5,5.5,0.6c5.6,3.1,11.8,3.8,18.1,4c11.3,0.2,22.4-1.7,33.4-4.2
		c2.2-0.5,4.4-1.1,6.5-1.6C184,91.4,184,91.5,184.1,91.5z M130.9,104.4c1.8-0.6,3.5-1.7,5.2-2.6c0.3-0.2,0.6-0.7,0.6-1.1
		c0-0.2-0.6-0.5-0.9-0.6c-3.5-1.1-7-2.1-10.4-3.2c-3.1-1-6.1-0.4-9.1,0.2c-4.5,1-9,1.2-13.5,1c-6.7-0.3-13.5-0.9-20.2-1.3
		c-0.8-0.1-1.5,0-2.3,0.1c-0.3,0-0.8,0.3-0.9,0.6c-0.1,0.2,0.2,0.7,0.5,0.9c1.2,0.8,2.3,1.6,3.5,2.3c8.4,4.8,17.5,6.4,27.7,6.3
		C117.2,106.9,124.2,106.6,130.9,104.4z"/>
	<path d="M51.2,178.3c34.3,0,68.5,0,102.8,0c-1.1-2-2.6-3.4-4.4-4.6c-3.7-2.5-7.9-3.5-12.3-4c-5.6-0.5-11,0.5-16.5,1.5
		c-7.1,1.2-14.3,2.3-21.4,3.4c-6.5,0.9-13.1,1.5-19.7,1.3c-1.5,0-3-0.3-4.4-0.6c-2.1-0.5-2.4-1.7-0.9-3.2c1-1,2.2-1.8,3.5-2.6
		c2-1.2,4.1-2.5,6.2-3.5c5.8-2.7,11.7-3.2,17.7-0.4c3.4,1.6,6.8,3.4,10.6,4c1.5,0.3,3,0.4,4.5,0.4c-4.5-2.2-7.8-5.4-9-10.4
		c-9.3,1.8-18.5,1.7-27.6-0.8c-1,4.3-4.4,6.1-8.1,7.6c-4,1.6-8,3-12,4.6c-3.2,1.3-6.2,3-8.2,6c-0.2,0.3-0.4,0.5-0.5,0.8
		C51.3,177.9,51.2,178,51.2,178.3z"/>
	<path d="M59.9,88.5c0.6-0.4,1.2-0.9,1.9-1.3c3.8-2.5,7.6-4.9,11.3-7.6c4.2-3,8.5-5.5,13.6-6.7c2.6-0.6,2.9-1.7,1.3-3.8
		c-0.1-0.1-0.1-0.2-0.2-0.3c-1.2-1.4-1.4-3-0.9-4.7c0.9-2.9,2.9-5.1,5-7.2c0.9-0.9,1.9-0.6,2.5,0.3c1.4,1.8,2.8,3.6,4,5.4
		c0.5,0.8,0.7,1.8,0.9,2.7c0.3,1.6-0.7,2.8-1.6,4c-1.4,1.9-0.9,3,1.3,3.6c2.1,0.5,4.1,1.1,6.1,1.8c5.8,2.1,10.1,6,14.1,10.6
		c-1.1-0.8-2.2-1.6-3.2-2.5c-3.1-2.7-6.4-5-10.4-6.2c-4.7-1.4-9.5-2.4-14.4-1.5c-5.2,1-9.6,3.8-13.6,7.1c-1.1,0.9-2.1,1.9-3,3
		c-1,1.3-0.7,2.4,0.8,3.2c0.8,0.4,1.7,0.8,2.6,1c6,1.6,12.2,2.1,18.4,1.8c8.7-0.3,17.4-1.1,26.3-1.7c-2.3,0.7-4.5,1.5-6.7,2
		c-9.7,2-19.4,2.3-29.2,1.7c-8.4-0.5-16.6-1.8-24.8-3.6c-0.7-0.1-1.3-0.5-2-0.7C60,88.8,59.9,88.6,59.9,88.5z M92.9,66.6
		c1.4,0.5,2.6,0.1,3.7-0.9c0.8-0.8,0.9-1.8,0.4-2.8c-0.6-1-1.3-1.9-2-2.9c-0.4-0.5-1-0.7-1.6-0.2c-1.1,1.2-1.9,2.6-2.1,4.1
		C91.3,65.4,91.8,66.2,92.9,66.6z"/>
</g>
</svg>
